<?xml version="1.0" encoding="UTF-8"?>
<svg xmlns="http://www.w3.org/2000/svg" xmlns:xlink="http://www.w3.org/1999/xlink" width="595.276pt" height="595.276pt" viewBox="0 0 595.276 595.276">
<path fill="none" stroke-width="1.142" stroke-linecap="butt" stroke-linejoin="miter" stroke="rgb(31.300354%, 35.748291%, 31.706238%)" stroke-opacity="1" stroke-miterlimit="10" d="M -0.000994259 0.0000898306 L 62.76666 0.0000898306 " transform="matrix(0.998785, 0, 0, -0.998785, 266.918962, 429.476652)"/>
<path fill-rule="nonzero" fill="rgb(31.300354%, 35.748291%, 31.706238%)" fill-opacity="1" stroke-width="0.571" stroke-linecap="butt" stroke-linejoin="miter" stroke="rgb(31.300354%, 35.748291%, 31.706238%)" stroke-opacity="1" stroke-miterlimit="10" d="M 0.000589357 0.00154095 C 8.905939 0.00154095 14.526047 6.075325 14.526047 13.701777 L 14.526047 13.795641 C 14.526047 21.375161 8.905939 27.585831 0.000589357 27.585831 L -8.267267 27.585831 L -8.267267 0.00154095 Z M -10.641244 28.590958 C -10.641244 29.232362 -10.093704 29.779902 -9.4523 29.779902 L 0.000589357 29.779902 C 10.047951 29.779902 16.993888 22.880896 16.993888 13.885594 L 16.993888 13.795641 C 16.993888 4.796428 10.047951 -2.192531 0.000589357 -2.192531 L -9.4523 -2.192531 C -10.093704 -2.192531 -10.641244 -1.64499 -10.641244 -1.003586 Z M -10.641244 28.590958 " transform="matrix(0.998785, 0, 0, -0.998785, 92.175193, 383.618727)"/>
<path fill-rule="nonzero" fill="rgb(31.300354%, 35.748291%, 31.706238%)" fill-opacity="1" d="M 122.699219 384.621094 L 122.699219 355.0625 C 122.699219 354.421875 123.25 353.875 123.886719 353.875 L 144.507812 353.875 C 145.097656 353.875 145.601562 354.378906 145.601562 354.972656 C 145.601562 355.5625 145.097656 356.066406 144.507812 356.066406 L 125.074219 356.066406 L 125.074219 368.609375 L 142.453125 368.609375 C 143.046875 368.609375 143.546875 369.113281 143.546875 369.707031 C 143.546875 370.296875 143.046875 370.800781 142.453125 370.800781 L 125.074219 370.800781 L 125.074219 383.617188 L 144.734375 383.617188 C 145.328125 383.617188 145.828125 384.121094 145.828125 384.714844 C 145.828125 385.308594 145.328125 385.808594 144.734375 385.808594 L 123.886719 385.808594 C 123.25 385.808594 122.699219 385.261719 122.699219 384.621094 "/>
<path fill="none" stroke-width="0.571" stroke-linecap="butt" stroke-linejoin="miter" stroke="rgb(31.300354%, 35.748291%, 31.706238%)" stroke-opacity="1" stroke-miterlimit="10" d="M -0.00154924 0.00121371 L -0.00154924 29.595758 C -0.00154924 30.237162 0.549902 30.784702 1.187395 30.784702 L 21.833569 30.784702 C 22.42413 30.784702 22.928649 30.280183 22.928649 29.685711 C 22.928649 29.09515 22.42413 28.590631 21.833569 28.590631 L 2.376339 28.590631 L 2.376339 16.032407 L 19.776383 16.032407 C 20.370855 16.032407 20.871463 15.527887 20.871463 14.933415 C 20.871463 14.342854 20.370855 13.838335 19.776383 13.838335 L 2.376339 13.838335 L 2.376339 1.006341 L 22.060407 1.006341 C 22.654879 1.006341 23.155487 0.501822 23.155487 -0.0926503 C 23.155487 -0.687122 22.654879 -1.187731 22.060407 -1.187731 L 1.187395 -1.187731 C 0.549902 -1.187731 -0.00154924 -0.64019 -0.00154924 0.00121371 Z M -0.00154924 0.00121371 " transform="matrix(0.998785, 0, 0, -0.998785, 122.700766, 384.622306)"/>
<path fill-rule="nonzero" fill="rgb(31.300354%, 35.748291%, 31.706238%)" fill-opacity="1" stroke-width="0.571" stroke-linecap="butt" stroke-linejoin="miter" stroke="rgb(31.300354%, 35.748291%, 31.706238%)" stroke-opacity="1" stroke-miterlimit="10" d="M -0.00033631 -0.00184185 C 5.342091 -0.00184185 9.319579 2.692838 9.319579 7.307819 L 9.319579 7.401683 C 9.319579 11.692051 5.940474 14.386731 0.136549 14.386731 L -10.779055 14.386731 L -10.779055 -0.00184185 Z M -13.156943 15.391858 C -13.156943 16.033262 -12.605492 16.580802 -11.964088 16.580802 L 0.273434 16.580802 C 4.200079 16.580802 7.352345 15.344926 9.272647 13.428535 C 10.778382 11.9228 11.693557 9.775661 11.693557 7.491636 L 11.693557 7.401683 C 11.693557 2.055345 7.71998 -1.003058 2.33062 -1.734415 L 11.419786 -13.518261 C 11.646625 -13.795942 11.78351 -14.065801 11.78351 -14.339571 C 11.78351 -14.980975 11.189037 -15.575448 10.551544 -15.575448 C 10.093957 -15.575448 9.773255 -15.301678 9.499485 -14.934043 L -0.321038 -2.14507 L -10.779055 -2.14507 L -10.779055 -14.386503 C -10.779055 -15.027907 -11.326595 -15.575448 -11.964088 -15.575448 C -12.605492 -15.575448 -13.156943 -15.027907 -13.156943 -14.386503 Z M -13.156943 15.391858 " transform="matrix(0.998785, 0, 0, -0.998785, 171.883148, 370.43566)"/>
<path fill-rule="nonzero" fill="rgb(31.300354%, 35.748291%, 31.706238%)" fill-opacity="1" stroke-width="0.571" stroke-linecap="butt" stroke-linejoin="miter" stroke="rgb(31.300354%, 35.748291%, 31.706238%)" stroke-opacity="1" stroke-miterlimit="10" d="M -0.000717167 -0.000157087 C -0.000717167 0.641247 0.550734 1.188787 1.188227 1.188787 L 1.415065 1.188787 C 1.919584 1.188787 2.283307 0.911106 2.604009 0.504362 L 15.07228 -17.857787 L 27.540552 0.504362 C 27.814322 0.911106 28.224977 1.188787 28.729496 1.188787 L 28.956334 1.188787 C 29.597738 1.188787 30.141367 0.641247 30.141367 -0.000157087 L 30.141367 -29.915403 C 30.141367 -30.556807 29.597738 -31.104348 28.956334 -31.104348 C 28.318841 -31.104348 27.771301 -30.556807 27.771301 -29.915403 L 27.771301 -3.152424 L 16.030476 -20.231765 C 15.756706 -20.646331 15.436004 -20.826237 15.025348 -20.826237 C 14.614693 -20.826237 14.293991 -20.646331 14.020221 -20.231765 L 2.283307 -3.152424 L 2.283307 -29.962335 C 2.283307 -30.599829 1.778788 -31.104348 1.141295 -31.104348 C 0.503802 -31.104348 -0.000717167 -30.599829 -0.000717167 -29.962335 Z M -0.000717167 -0.000157087 " transform="matrix(0.998785, 0, 0, -0.998785, 197.207748, 354.925624)"/>
<path fill-rule="nonzero" fill="rgb(31.300354%, 35.748291%, 31.706238%)" fill-opacity="1" d="M 263.910156 374.722656 L 255.515625 356.246094 L 247.074219 374.722656 Z M 240.277344 384.257812 L 253.917969 354.699219 C 254.238281 354.011719 254.691406 353.558594 255.515625 353.558594 L 255.605469 353.558594 C 256.425781 353.558594 256.882812 354.011719 257.203125 354.699219 L 270.796875 384.167969 C 270.933594 384.4375 270.980469 384.667969 270.980469 384.898438 C 270.980469 385.488281 270.476562 385.992188 269.839844 385.992188 C 269.292969 385.992188 268.882812 385.578125 268.652344 385.078125 L 264.910156 376.867188 L 246.070312 376.867188 L 242.328125 385.125 C 242.101562 385.671875 241.738281 385.992188 241.1875 385.992188 C 240.597656 385.992188 240.09375 385.535156 240.09375 384.988281 C 240.09375 384.804688 240.140625 384.53125 240.277344 384.257812 "/>
<path fill="none" stroke-width="0.571" stroke-linecap="butt" stroke-linejoin="miter" stroke="rgb(31.300354%, 35.748291%, 31.706238%)" stroke-opacity="1" stroke-miterlimit="10" d="M 0.00153501 0.000390111 L -8.403206 18.499425 L -16.854879 0.000390111 Z M -23.660021 -9.546363 L -10.002805 20.048181 C -9.682103 20.736517 -9.228427 21.190193 -8.403206 21.190193 L -8.313253 21.190193 C -7.491943 21.190193 -7.034356 20.736517 -6.713654 20.048181 L 6.89663 -9.45641 C 7.033515 -9.726269 7.080447 -9.957018 7.080447 -10.187767 C 7.080447 -10.778329 6.575928 -11.282848 5.938434 -11.282848 C 5.390894 -11.282848 4.980239 -10.868282 4.74949 -10.367673 L 1.002751 -2.146749 L -17.860006 -2.146749 L -21.606745 -10.414605 C -21.833583 -10.962146 -22.197306 -11.282848 -22.748758 -11.282848 C -23.339319 -11.282848 -23.843838 -10.825261 -23.843838 -10.27772 C -23.843838 -10.093903 -23.796906 -9.820133 -23.660021 -9.546363 Z M -23.660021 -9.546363 " transform="matrix(0.998785, 0, 0, -0.998785, 263.908623, 374.723046)"/>
<path fill-rule="nonzero" fill="rgb(31.300354%, 35.748291%, 31.706238%)" fill-opacity="1" stroke-width="0.571" stroke-linecap="butt" stroke-linejoin="miter" stroke="rgb(31.300354%, 35.748291%, 31.706238%)" stroke-opacity="1" stroke-miterlimit="10" d="M -0.00138201 -0.000169364 L -10.228649 -0.000169364 C -10.823122 -0.000169364 -11.327641 0.50435 -11.327641 1.094911 C -11.327641 1.689383 -10.823122 2.193902 -10.228649 2.193902 L 12.607685 2.193902 C 13.198246 2.193902 13.702765 1.689383 13.702765 1.094911 C 13.702765 0.50435 13.198246 -0.000169364 12.607685 -0.000169364 L 2.376507 -0.000169364 L 2.376507 -28.773403 C 2.376507 -29.414807 1.825055 -29.962348 1.187562 -29.962348 C 0.550069 -29.962348 -0.00138201 -29.414807 -0.00138201 -28.773403 Z M -0.00138201 -0.000169364 " transform="matrix(0.998785, 0, 0, -0.998785, 288.548255, 356.066237)"/>
<path fill-rule="nonzero" fill="rgb(31.300354%, 35.748291%, 31.706238%)" fill-opacity="1" d="M 340.46875 369.933594 L 340.46875 369.84375 C 340.46875 361.949219 334.71875 355.472656 326.824219 355.472656 C 318.9375 355.472656 313.28125 361.859375 313.28125 369.75 L 313.28125 369.84375 C 313.28125 377.734375 319.027344 384.214844 326.917969 384.214844 C 334.8125 384.214844 340.46875 377.824219 340.46875 369.933594 M 310.816406 369.933594 L 310.816406 369.84375 C 310.816406 361.128906 317.246094 353.328125 326.917969 353.328125 C 336.589844 353.328125 342.929688 361.039062 342.929688 369.75 L 342.929688 369.84375 C 342.929688 378.554688 336.496094 386.355469 326.824219 386.355469 C 317.15625 386.355469 310.816406 378.648438 310.816406 369.933594 "/>
<path fill="none" stroke-width="0.571" stroke-linecap="butt" stroke-linejoin="miter" stroke="rgb(31.300354%, 35.748291%, 31.706238%)" stroke-opacity="1" stroke-miterlimit="10" d="M 0.00124258 -0.000322727 L 0.00124258 0.0896303 C 0.00124258 7.993763 -5.755751 14.478203 -13.659884 14.478203 C -21.556195 14.478203 -27.219324 8.083716 -27.219324 0.183494 L -27.219324 0.0896303 C -27.219324 -7.810592 -21.466242 -14.298942 -13.56602 -14.298942 C -5.661887 -14.298942 0.00124258 -7.900545 0.00124258 -0.000322727 Z M -29.687166 -0.000322727 L -29.687166 0.0896303 C -29.687166 8.815073 -23.249658 16.625342 -13.56602 16.625342 C -3.882381 16.625342 2.465173 8.905026 2.465173 0.183494 L 2.465173 0.0896303 C 2.465173 -8.631902 -3.976245 -16.442171 -13.659884 -16.442171 C -23.339611 -16.442171 -29.687166 -8.725766 -29.687166 -0.000322727 Z M -29.687166 -0.000322727 " transform="matrix(0.998785, 0, 0, -0.998785, 340.467509, 369.933271)"/>
<path fill-rule="nonzero" fill="rgb(31.300354%, 35.748291%, 31.706238%)" fill-opacity="1" stroke-width="0.571" stroke-linecap="butt" stroke-linejoin="miter" stroke="rgb(31.300354%, 35.748291%, 31.706238%)" stroke-opacity="1" stroke-miterlimit="10" d="M -0.00105353 0.000974924 C -0.00105353 0.638468 0.550398 1.189919 1.187891 1.189919 C 1.825384 1.189919 2.376835 0.638468 2.376835 0.000974924 L 2.376835 -28.772259 L 20.234465 -28.772259 C 20.828938 -28.772259 21.329546 -29.276778 21.329546 -29.87125 C 21.329546 -30.465722 20.828938 -30.966331 20.234465 -30.966331 L 1.187891 -30.966331 C 0.550398 -30.966331 -0.00105353 -30.41879 -0.00105353 -29.777386 Z M -0.00105353 0.000974924 " transform="matrix(0.998785, 0, 0, -0.998785, 356.485427, 354.87988)"/>
<path fill-rule="nonzero" fill="rgb(31.300354%, 35.748291%, 31.706238%)" fill-opacity="1" d="M 416.617188 369.933594 L 416.617188 369.84375 C 416.617188 361.949219 410.867188 355.472656 402.976562 355.472656 C 395.085938 355.472656 389.429688 361.859375 389.429688 369.75 L 389.429688 369.84375 C 389.429688 377.734375 395.175781 384.214844 403.066406 384.214844 C 410.960938 384.214844 416.617188 377.824219 416.617188 369.933594 M 386.964844 369.933594 L 386.964844 369.84375 C 386.964844 361.128906 393.394531 353.328125 403.066406 353.328125 C 412.738281 353.328125 419.082031 361.039062 419.082031 369.75 L 419.082031 369.84375 C 419.082031 378.554688 412.644531 386.355469 402.976562 386.355469 C 393.304688 386.355469 386.964844 378.648438 386.964844 369.933594 "/>
<path fill="none" stroke-width="0.571" stroke-linecap="butt" stroke-linejoin="miter" stroke="rgb(31.300354%, 35.748291%, 31.706238%)" stroke-opacity="1" stroke-miterlimit="10" d="M 0.00079505 -0.000322727 L 0.00079505 0.0896303 C 0.00079505 7.993763 -5.756198 14.478203 -13.65642 14.478203 C -21.556642 14.478203 -27.219772 8.083716 -27.219772 0.183494 L -27.219772 0.0896303 C -27.219772 -7.810592 -21.466689 -14.298942 -13.566467 -14.298942 C -5.662334 -14.298942 0.00079505 -7.900545 0.00079505 -0.000322727 Z M -29.687613 -0.000322727 L -29.687613 0.0896303 C -29.687613 8.815073 -23.250106 16.625342 -13.566467 16.625342 C -3.882829 16.625342 2.468637 8.905026 2.468637 0.183494 L 2.468637 0.0896303 C 2.468637 -8.631902 -3.976693 -16.442171 -13.65642 -16.442171 C -23.340059 -16.442171 -29.687613 -8.725766 -29.687613 -0.000322727 Z M -29.687613 -0.000322727 " transform="matrix(0.998785, 0, 0, -0.998785, 416.616393, 369.933271)"/>
<path fill-rule="nonzero" fill="rgb(31.300354%, 35.748291%, 31.706238%)" fill-opacity="1" d="M 431.222656 369.933594 L 431.222656 369.84375 C 431.222656 361.21875 437.472656 353.328125 447.003906 353.328125 C 451.792969 353.328125 454.941406 354.652344 457.90625 356.886719 C 458.179688 357.113281 458.363281 357.433594 458.363281 357.84375 C 458.363281 358.484375 457.816406 359.03125 457.179688 359.03125 C 456.996094 359.03125 456.722656 358.941406 456.445312 358.710938 C 453.984375 356.796875 451.292969 355.472656 446.867188 355.472656 C 439.113281 355.472656 433.683594 362.039062 433.683594 369.75 L 433.683594 369.84375 C 433.683594 378.097656 438.839844 384.257812 447.371094 384.257812 C 451.429688 384.257812 455.214844 382.570312 457.542969 380.609375 L 457.542969 371.4375 L 447.597656 371.4375 C 447.003906 371.4375 446.503906 370.9375 446.503906 370.34375 C 446.503906 369.75 447.003906 369.25 447.597656 369.25 L 458.636719 369.25 C 459.277344 369.25 459.820312 369.796875 459.820312 370.4375 L 459.820312 380.882812 C 459.820312 381.339844 459.503906 381.839844 459.003906 382.25 C 455.992188 384.578125 452.023438 386.355469 447.277344 386.355469 C 437.195312 386.355469 431.222656 378.921875 431.222656 369.933594 "/>
<path fill="none" stroke-width="0.571" stroke-linecap="butt" stroke-linejoin="miter" stroke="rgb(31.300354%, 35.748291%, 31.706238%)" stroke-opacity="1" stroke-miterlimit="10" d="M 0.000727593 -0.000322727 L 0.000727593 0.0896303 C 0.000727593 8.72512 6.258329 16.625342 15.801171 16.625342 C 20.596059 16.625342 23.748325 15.299513 26.716775 13.06242 C 26.990545 12.835582 27.174362 12.51488 27.174362 12.104225 C 27.174362 11.462821 26.626822 10.915281 25.989329 10.915281 C 25.805512 10.915281 25.531742 11.005234 25.254061 11.235983 C 22.79013 13.152373 20.09545 14.478203 15.664286 14.478203 C 7.90095 14.478203 2.464658 7.90381 2.464658 0.183494 L 2.464658 0.0896303 C 2.464658 -8.174315 7.627179 -14.341963 16.168806 -14.341963 C 20.232335 -14.341963 24.022095 -12.652411 26.353052 -10.689088 L 26.353052 -1.506058 L 16.395644 -1.506058 C 15.801171 -1.506058 15.300563 -1.00545 15.300563 -0.410978 C 15.300563 0.183494 15.801171 0.684102 16.395644 0.684102 L 27.448132 0.684102 C 28.089536 0.684102 28.633166 0.136562 28.633166 -0.504842 L 28.633166 -10.962858 C 28.633166 -11.420445 28.316374 -11.921054 27.815766 -12.331709 C 24.800385 -14.662665 20.826808 -16.442171 16.074941 -16.442171 C 5.980648 -16.442171 0.000727593 -8.999536 0.000727593 -0.000322727 Z M 0.000727593 -0.000322727 " transform="matrix(0.998785, 0, 0, -0.998785, 431.22193, 369.933271)"/>
<path fill-rule="nonzero" fill="rgb(31.300354%, 35.748291%, 31.706238%)" fill-opacity="1" stroke-width="0.571" stroke-linecap="butt" stroke-linejoin="miter" stroke="rgb(31.300354%, 35.748291%, 31.706238%)" stroke-opacity="1" stroke-miterlimit="10" d="M 0.000460017 0.000974924 C 0.000460017 0.638468 0.548 1.189919 1.189404 1.189919 C 1.826897 1.189919 2.374438 0.638468 2.374438 0.000974924 L 2.374438 -29.961203 C 2.374438 -30.602607 1.826897 -31.150148 1.189404 -31.150148 C 0.548 -31.150148 0.000460017 -30.602607 0.000460017 -29.961203 Z M 0.000460017 0.000974924 " transform="matrix(0.998785, 0, 0, -0.998785, 474.198759, 354.87988)"/>
<path fill-rule="nonzero" fill="rgb(31.300354%, 35.748291%, 31.706238%)" fill-opacity="1" d="M 491.855469 384.621094 L 491.855469 355.0625 C 491.855469 354.421875 492.40625 353.875 493.042969 353.875 L 513.660156 353.875 C 514.253906 353.875 514.757812 354.378906 514.757812 354.972656 C 514.757812 355.5625 514.253906 356.066406 513.660156 356.066406 L 494.230469 356.066406 L 494.230469 368.609375 L 511.609375 368.609375 C 512.199219 368.609375 512.703125 369.113281 512.703125 369.707031 C 512.703125 370.296875 512.199219 370.800781 511.609375 370.800781 L 494.230469 370.800781 L 494.230469 383.617188 L 513.890625 383.617188 C 514.480469 383.617188 514.984375 384.121094 514.984375 384.714844 C 514.984375 385.308594 514.480469 385.808594 513.890625 385.808594 L 493.042969 385.808594 C 492.40625 385.808594 491.855469 385.261719 491.855469 384.621094 "/>
<path fill="none" stroke-width="0.571" stroke-linecap="butt" stroke-linejoin="miter" stroke="rgb(31.300354%, 35.748291%, 31.706238%)" stroke-opacity="1" stroke-miterlimit="10" d="M -0.000915701 0.00121371 L -0.000915701 29.595758 C -0.000915701 30.237162 0.550535 30.784702 1.188029 30.784702 L 21.830292 30.784702 C 22.424764 30.784702 22.929283 30.280183 22.929283 29.685711 C 22.929283 29.09515 22.424764 28.590631 21.830292 28.590631 L 2.376973 28.590631 L 2.376973 16.032407 L 19.777016 16.032407 C 20.367577 16.032407 20.872096 15.527887 20.872096 14.933415 C 20.872096 14.342854 20.367577 13.838335 19.777016 13.838335 L 2.376973 13.838335 L 2.376973 1.006341 L 22.061041 1.006341 C 22.651602 1.006341 23.156121 0.501822 23.156121 -0.0926503 C 23.156121 -0.687122 22.651602 -1.187731 22.061041 -1.187731 L 1.188029 -1.187731 C 0.550535 -1.187731 -0.000915701 -0.64019 -0.000915701 0.00121371 Z M -0.000915701 0.00121371 " transform="matrix(0.998785, 0, 0, -0.998785, 491.856383, 384.622306)"/>
<path fill-rule="nonzero" fill="rgb(31.300354%, 35.748291%, 31.706238%)" fill-opacity="1" d="M 203.808594 471.539062 C 203.808594 471.140625 204.152344 470.796875 204.550781 470.796875 L 204.777344 470.796875 C 205.089844 470.796875 205.320312 470.96875 205.519531 471.226562 L 218.964844 488.289062 L 218.964844 471.484375 C 218.964844 471.082031 219.277344 470.769531 219.675781 470.769531 C 220.074219 470.769531 220.386719 471.082031 220.386719 471.484375 L 220.386719 490.28125 C 220.386719 490.625 220.132812 490.910156 219.789062 490.910156 L 219.675781 490.910156 C 219.390625 490.910156 219.164062 490.710938 218.9375 490.425781 L 205.234375 473.046875 L 205.234375 490.226562 C 205.234375 490.625 204.921875 490.9375 204.523438 490.9375 C 204.121094 490.9375 203.808594 490.625 203.808594 490.226562 Z M 203.808594 471.539062 "/>
<path fill-rule="nonzero" fill="rgb(31.300354%, 35.748291%, 31.706238%)" fill-opacity="1" d="M 243.808594 483.902344 L 238.566406 472.367188 L 233.296875 483.902344 Z M 229.050781 489.855469 L 237.566406 471.394531 C 237.769531 470.96875 238.050781 470.683594 238.566406 470.683594 L 238.621094 470.683594 C 239.136719 470.683594 239.421875 470.96875 239.621094 471.394531 L 248.109375 489.796875 C 248.191406 489.96875 248.222656 490.109375 248.222656 490.253906 C 248.222656 490.625 247.910156 490.9375 247.511719 490.9375 C 247.167969 490.9375 246.910156 490.679688 246.769531 490.367188 L 244.433594 485.242188 L 232.667969 485.242188 L 230.332031 490.394531 C 230.191406 490.738281 229.964844 490.9375 229.621094 490.9375 C 229.25 490.9375 228.9375 490.652344 228.9375 490.308594 C 228.9375 490.195312 228.964844 490.027344 229.050781 489.855469 "/>
<path fill-rule="nonzero" fill="rgb(31.300354%, 35.748291%, 31.706238%)" fill-opacity="1" d="M 255.859375 490.195312 L 255.859375 490.167969 C 255.859375 489.910156 255.945312 489.769531 256.117188 489.542969 L 269.417969 472.222656 L 256.828125 472.222656 C 256.457031 472.222656 256.144531 471.9375 256.144531 471.566406 C 256.144531 471.195312 256.457031 470.882812 256.828125 470.882812 L 270.730469 470.882812 C 271.101562 470.882812 271.441406 471.195312 271.441406 471.511719 L 271.441406 471.539062 C 271.441406 471.796875 271.355469 471.9375 271.183594 472.167969 L 257.882812 489.484375 L 270.957031 489.484375 C 271.328125 489.484375 271.640625 489.769531 271.640625 490.140625 C 271.640625 490.511719 271.328125 490.824219 270.957031 490.824219 L 256.570312 490.824219 C 256.203125 490.824219 255.859375 490.511719 255.859375 490.195312 "/>
<path fill-rule="nonzero" fill="rgb(31.300354%, 35.748291%, 31.706238%)" fill-opacity="1" d="M 293.890625 483.902344 L 288.648438 472.367188 L 283.378906 483.902344 Z M 279.136719 489.855469 L 287.652344 471.394531 C 287.851562 470.96875 288.136719 470.683594 288.648438 470.683594 L 288.707031 470.683594 C 289.21875 470.683594 289.503906 470.96875 289.703125 471.394531 L 298.191406 489.796875 C 298.277344 489.96875 298.304688 490.109375 298.304688 490.253906 C 298.304688 490.625 297.992188 490.9375 297.59375 490.9375 C 297.25 490.9375 296.996094 490.679688 296.851562 490.367188 L 294.515625 485.242188 L 282.753906 485.242188 L 280.417969 490.394531 C 280.273438 490.738281 280.046875 490.9375 279.703125 490.9375 C 279.335938 490.9375 279.023438 490.652344 279.023438 490.308594 C 279.023438 490.195312 279.050781 490.027344 279.136719 489.855469 "/>
<path fill-rule="nonzero" fill="rgb(31.300354%, 35.748291%, 31.706238%)" fill-opacity="1" d="M 315.085938 481.222656 C 318.417969 481.222656 320.898438 479.542969 320.898438 476.667969 L 320.898438 476.609375 C 320.898438 473.933594 318.792969 472.253906 315.171875 472.253906 L 308.363281 472.253906 L 308.363281 481.222656 Z M 306.882812 471.625 C 306.882812 471.226562 307.226562 470.882812 307.625 470.882812 L 315.257812 470.882812 C 317.707031 470.882812 319.671875 471.652344 320.871094 472.847656 C 321.8125 473.789062 322.378906 475.128906 322.378906 476.550781 L 322.378906 476.609375 C 322.378906 479.941406 319.902344 481.851562 316.539062 482.308594 L 322.210938 489.65625 C 322.351562 489.828125 322.4375 489.996094 322.4375 490.167969 C 322.4375 490.566406 322.066406 490.9375 321.667969 490.9375 C 321.382812 490.9375 321.183594 490.765625 321.011719 490.539062 L 314.886719 482.5625 L 308.363281 482.5625 L 308.363281 490.195312 C 308.363281 490.59375 308.023438 490.9375 307.625 490.9375 C 307.226562 490.9375 306.882812 490.59375 306.882812 490.195312 Z M 306.882812 471.625 "/>
<path fill-rule="nonzero" fill="rgb(31.300354%, 35.748291%, 31.706238%)" fill-opacity="1" d="M 331.46875 490.082031 L 331.46875 471.625 C 331.46875 471.226562 331.8125 470.882812 332.210938 470.882812 L 345.085938 470.882812 C 345.457031 470.882812 345.769531 471.199219 345.769531 471.566406 C 345.769531 471.9375 345.457031 472.25 345.085938 472.25 L 332.953125 472.25 L 332.953125 480.085938 L 343.804688 480.085938 C 344.175781 480.085938 344.488281 480.398438 344.488281 480.769531 C 344.488281 481.136719 344.175781 481.453125 343.804688 481.453125 L 332.953125 481.453125 L 332.953125 489.457031 L 345.226562 489.457031 C 345.597656 489.457031 345.910156 489.769531 345.910156 490.140625 C 345.910156 490.511719 345.597656 490.824219 345.226562 490.824219 L 332.210938 490.824219 C 331.8125 490.824219 331.46875 490.480469 331.46875 490.082031 "/>
<path fill-rule="nonzero" fill="rgb(31.300354%, 35.748291%, 31.706238%)" fill-opacity="1" d="M 360.074219 472.25 L 353.691406 472.25 C 353.320312 472.25 353.007812 471.9375 353.007812 471.566406 C 353.007812 471.195312 353.320312 470.882812 353.691406 470.882812 L 367.933594 470.882812 C 368.304688 470.882812 368.617188 471.195312 368.617188 471.566406 C 368.617188 471.9375 368.304688 472.25 367.933594 472.25 L 361.554688 472.25 L 361.554688 490.195312 C 361.554688 490.59375 361.210938 490.9375 360.8125 490.9375 C 360.414062 490.9375 360.074219 490.59375 360.074219 490.195312 Z M 360.074219 472.25 "/>
<path fill-rule="nonzero" fill="rgb(31.300354%, 35.748291%, 31.706238%)" fill-opacity="1" d="M 376.996094 471.511719 C 376.996094 471.109375 377.339844 470.769531 377.738281 470.769531 C 378.136719 470.769531 378.476562 471.109375 378.476562 471.511719 L 378.476562 480.113281 L 391.238281 480.113281 L 391.238281 471.511719 C 391.238281 471.109375 391.582031 470.769531 391.980469 470.769531 C 392.378906 470.769531 392.71875 471.109375 392.71875 471.511719 L 392.71875 490.195312 C 392.71875 490.59375 392.378906 490.9375 391.980469 490.9375 C 391.582031 490.9375 391.238281 490.59375 391.238281 490.195312 L 391.238281 481.480469 L 378.476562 481.480469 L 378.476562 490.195312 C 378.476562 490.59375 378.136719 490.9375 377.738281 490.9375 C 377.339844 490.9375 376.996094 490.59375 376.996094 490.195312 Z M 376.996094 471.511719 "/>
<path fill-rule="nonzero" fill="rgb(81.454468%, 61.679077%, 65.238953%)" fill-opacity="1" d="M 255.007812 235.652344 C 258.097656 231.789062 260.238281 227.308594 262.195312 222.808594 C 262.195312 222.808594 262.269531 222.617188 262.269531 222.617188 C 262.308594 222.519531 262.269531 222.582031 262.246094 222.667969 C 261.746094 224.40625 264.011719 225.386719 264.972656 223.988281 C 264.972656 223.988281 265.183594 223.441406 265.183594 223.441406 C 263.921875 234.808594 261.273438 245.992188 260.382812 257.378906 L 254.253906 255.542969 C 258.511719 245.636719 259.902344 234.867188 266.230469 225.574219 C 268.691406 222.171875 272.671875 218.554688 277.476562 220.152344 C 279.5625 221 280.226562 221.855469 281.40625 223.148438 C 284.027344 226.421875 285.550781 229.527344 287.328125 233.042969 C 293.972656 248.144531 304.796875 260.890625 321.789062 263.808594 C 338.664062 266.4375 354.644531 257.746094 368.703125 249.148438 C 371.664062 247.289062 374.613281 245.386719 377.566406 243.464844 C 365.046875 256.121094 350.3125 268.125 332.191406 271.257812 C 312.707031 274.691406 293.789062 263.347656 284.144531 246.726562 C 280.679688 241.199219 278.347656 234.015625 274.558594 228.792969 C 274.378906 228.566406 274.207031 228.375 274.113281 228.289062 C 274.042969 228.191406 273.972656 228.234375 274.511719 228.449219 C 274.570312 228.484375 275.117188 228.597656 275.183594 228.589844 C 275.175781 228.585938 275.085938 228.585938 275.132812 228.574219 C 275.183594 228.570312 275.351562 228.519531 275.375 228.488281 C 275.4375 228.40625 274.921875 228.761719 274.351562 229.296875 C 269.515625 234.308594 267.410156 241.96875 264.5625 248.511719 C 262.238281 255.234375 254.496094 268.515625 251.054688 274.976562 C 251.054688 274.976562 253.933594 256.601562 253.933594 256.601562 C 255.1875 248.199219 257.75 239.347656 260.015625 231.203125 C 260.8125 228.316406 261.5625 225.425781 262.242188 222.515625 L 262.359375 222.359375 C 262.925781 221.355469 264.574219 221.277344 265.113281 222.507812 C 265.382812 223.128906 265.195312 223.6875 264.871094 224.175781 C 262.101562 228.367188 259.035156 232.589844 255.007812 235.652344 "/>
<path fill-rule="nonzero" fill="rgb(81.454468%, 61.679077%, 65.238953%)" fill-opacity="1" d="M 220.867188 271.816406 C 247.980469 271.957031 275.238281 271.867188 302.003906 267.457031 C 303.765625 267.144531 305.519531 266.65625 307.199219 266.015625 C 339.335938 253.921875 354.976562 224.308594 353.734375 190.917969 C 353.089844 149.957031 329.058594 120.941406 288.289062 114.636719 C 285.65625 114.183594 282.636719 114.058594 279.933594 113.820312 C 259.746094 112.800781 239.441406 113.425781 219.210938 114.347656 C 219.210938 114.347656 222.925781 110.339844 222.925781 110.339844 C 222.960938 162.316406 221.871094 219.609375 220.867188 271.816406 M 220.867188 271.816406 C 218.527344 218.65625 216.160156 163.59375 215 110.4375 C 215 110.4375 214.929688 106.691406 214.929688 106.691406 L 218.714844 106.429688 C 238.300781 105.191406 257.839844 104.101562 277.488281 104.84375 C 297.851562 105.316406 318.4375 111.714844 334.117188 125.074219 C 359.957031 146.488281 366.511719 183.339844 359.65625 214.886719 C 354.699219 238.882812 337.328125 260.050781 314.644531 269.078125 C 310.855469 270.605469 306.914062 272.039062 302.828125 272.554688 C 275.59375 275.816406 248.082031 274.332031 220.867188 271.816406 "/>
</svg>
